<svg id="Gruppe_1" data-name="Gruppe 1" xmlns="http://www.w3.org/2000/svg" xmlns:xlink="http://www.w3.org/1999/xlink" width="30" height="30" viewBox="0 0 2048 2048">
  <defs>
    <style>
      .cls-1 {
        stroke-linejoin: round;
        fill: url(#linear-gradient);
        stroke: url(#linear-gradient-2);
      }

      .cls-1, .cls-2 {
        stroke-width: 64px;
        fill-rule: evenodd;
      }

      .cls-2 {
        fill: none;
        stroke-linecap: round;
        stroke: url(#linear-gradient-3);
      }
    </style>
    <linearGradient id="linear-gradient" x1="48.813" y1="1378.961" x2="1999.22" y2="669.071" gradientUnits="userSpaceOnUse">
      <stop offset="0" stop-color="#141820"/>
      <stop offset="1" stop-color="#264288"/>
    </linearGradient>
    <linearGradient id="linear-gradient-2" x1="48.813" y1="1633.391" x2="1999.22" y2="414.641" gradientUnits="userSpaceOnUse">
      <stop offset="0" stop-color="#e5a8ec"/>
      <stop offset="1" stop-color="#92eef1"/>
    </linearGradient>
    <linearGradient id="linear-gradient-3" x1="785.8" y1="1511.88" x2="1262.196" y2="535.125" gradientUnits="userSpaceOnUse">
      <stop offset="0" stop-color="#e554d6"/>
      <stop offset="1" stop-color="#40efdc"/>
    </linearGradient>
  </defs>
  <path id="Abgerundetes_Rechteck_3" data-name="Abgerundetes Rechteck 3" class="cls-1" d="M1118.49,87.944l841.57,841.565a133.64,133.64,0,0,1,0,188.981l-841.57,841.57a133.64,133.64,0,0,1-188.981,0L87.944,1118.49a133.629,133.629,0,0,1,0-188.981L929.509,87.944A133.629,133.629,0,0,1,1118.49,87.944Z"/>
  <path id="Ellipse_1_Kopie_4" data-name="Ellipse 1 Kopie 4" class="cls-2" d="M1024.1,1023.67l177.85-177.814c60.5,60.483,137.01,136.977,186.89,186.844M1108.51,752.434c-41.74-44.424-57.6-129.253-4.86-181.981,48.91-48.909,130.41-46.731,182.01,4.865s53.79,133.071,4.87,181.98c-36.64,36.632-64.37,64.356-88.58,88.558C1149.13,793.041,1108.51,752.434,1108.51,752.434Zm-84.81,271.2c-84.687,84.66-121.78,121.75-177.73,177.69-60.475-60.47-136.958-136.93-186.819-186.78m285.126,462.05c-48.884,48.87-130.333,46.68-181.922-4.9s-53.781-133.01-4.9-181.88c36.613-36.6,64.322-64.31,88.512-88.49,52.809,52.79,93.41,93.39,93.41,93.39C981.108,1339.12,996.978,1423.9,944.277,1476.59Z"/>
</svg>
