<?xml version="1.0" standalone="no"?>
<!DOCTYPE svg PUBLIC "-//W3C//DTD SVG 20010904//EN"
 "http://www.w3.org/TR/2001/REC-SVG-20010904/DTD/svg10.dtd">
<svg version="1.0" xmlns="http://www.w3.org/2000/svg"
 width="256.000000pt" height="256.000000pt" viewBox="0 0 256.000000 256.000000"
 preserveAspectRatio="xMidYMid meet">
<metadata>
Created by potrace 1.14, written by Peter Selinger 2001-2017
</metadata>
<g transform="translate(0.000000,256.000000) scale(0.100000,-0.100000)"
fill="#000000" stroke="none">
<path d="M1245 2486 c-24 -16 -193 -114 -255 -148 -88 -49 -195 -112 -200
-117 -3 -3 -23 -15 -45 -27 -22 -11 -101 -56 -175 -99 -74 -43 -146 -85 -160
-92 -14 -8 -47 -28 -75 -44 -27 -17 -62 -35 -78 -42 -15 -6 -30 -21 -34 -32
-9 -29 -10 -335 0 -335 5 0 5 -6 1 -12 -11 -17 -11 -468 -1 -468 5 0 5 -6 0
-12 -4 -7 -7 -96 -8 -198 l0 -185 40 -27 c21 -15 43 -24 47 -22 4 3 8 1 8 -4
0 -4 17 -17 38 -28 67 -37 87 -49 94 -59 4 -5 8 -7 8 -3 0 4 25 -8 55 -27 30
-19 59 -35 65 -35 5 0 10 -4 10 -10 0 -5 4 -10 10 -10 5 0 43 -20 85 -45 41
-24 75 -42 75 -39 0 3 10 -4 22 -16 12 -11 26 -20 30 -20 5 0 26 -11 48 -25
22 -14 40 -22 40 -18 0 5 5 0 11 -10 6 -9 14 -15 20 -12 5 4 9 2 9 -2 0 -5 25
-22 55 -38 83 -45 106 -58 150 -85 22 -14 43 -24 48 -22 4 1 7 -2 7 -7 0 -5 8
-11 18 -15 9 -3 33 -15 52 -26 32 -18 36 -19 47 -4 6 9 16 13 22 9 6 -3 11 -1
11 5 0 6 4 8 10 5 5 -3 7 0 4 8 -3 8 0 18 7 23 8 5 10 3 4 -7 -8 -12 -6 -12 8
0 9 7 17 10 17 5 0 -5 7 0 15 10 8 11 15 16 15 12 0 -4 14 2 30 14 17 12 30
18 30 14 0 -4 6 -1 13 8 6 9 21 18 32 20 11 2 19 10 17 17 -1 7 2 10 8 6 5 -3
10 0 10 7 0 9 3 9 10 -2 8 -13 10 -12 10 3 0 9 3 17 8 16 16 -2 52 14 52 24 0
6 3 8 6 4 4 -3 14 2 23 11 9 10 12 12 7 5 -14 -21 1 -15 24 9 11 12 20 18 20
14 0 -4 7 0 16 9 9 9 23 14 31 11 8 -3 11 -1 8 4 -3 6 5 14 19 20 14 5 26 14
26 20 0 6 5 8 10 5 6 -3 10 0 10 7 0 9 3 9 10 -2 7 -11 10 -11 10 -2 0 7 5 10
12 6 7 -4 8 -3 4 4 -4 7 8 18 34 29 22 10 40 21 40 25 0 5 6 8 13 8 7 0 23 9
35 20 14 13 22 16 22 8 0 -10 2 -10 9 1 5 7 14 10 20 7 6 -4 11 -4 10 1 -4 23
3 31 22 28 12 -3 19 -2 16 2 -7 6 41 36 86 54 15 6 27 15 27 21 0 6 7 8 15 4
8 -3 14 0 12 6 -1 5 7 12 17 14 10 1 22 8 26 15 5 6 13 8 20 4 9 -5 11 -4 6 3
-4 7 -1 12 8 12 8 0 18 6 23 12 4 7 8 285 9 618 l0 605 -30 21 c-17 11 -74 45
-126 74 -52 30 -97 57 -100 60 -3 3 -23 15 -45 26 -95 50 -210 118 -216 127
-4 5 -11 7 -17 3 -6 -3 -12 -2 -14 3 -4 10 -155 101 -169 101 -5 0 -9 5 -9 11
0 5 -4 7 -10 4 -5 -3 -10 -1 -10 4 0 6 -5 11 -10 11 -6 0 -27 11 -48 23 -20
13 -57 35 -82 49 -25 14 -73 42 -107 62 -67 39 -78 41 -108 22z m-915 -648 c0
-4 4 -8 9 -8 9 0 94 -47 156 -85 11 -7 24 -12 29 -13 5 0 12 -4 15 -9 6 -8 15
-13 100 -61 25 -14 49 -29 52 -35 4 -5 11 -7 17 -3 6 3 12 3 14 -2 4 -10 105
-72 117 -72 5 0 11 -3 13 -7 2 -5 29 -21 60 -38 32 -16 58 -34 58 -38 0 -5 5
-5 10 -2 6 3 10 3 10 -2 0 -4 23 -19 50 -32 28 -14 50 -29 50 -33 0 -4 -2 -8
-4 -8 -6 0 -92 47 -134 74 -23 14 -46 26 -51 26 -5 0 -11 3 -13 8 -3 7 -66 43
-115 66 -13 6 -23 14 -23 19 0 4 -4 7 -9 7 -5 0 -62 31 -128 68 -65 38 -129
75 -143 83 -14 8 -27 16 -30 19 -3 3 -24 14 -47 25 -24 11 -43 23 -43 26 0 4
-11 10 -25 13 -14 4 -25 11 -25 16 0 6 -7 10 -16 10 -8 0 -13 4 -9 10 7 11 55
-8 55 -22z m1950 11 c0 -6 -4 -7 -10 -4 -5 3 -10 1 -10 -5 0 -6 -4 -8 -10 -5
-5 3 -10 2 -10 -3 0 -5 -22 -19 -50 -32 -27 -13 -46 -28 -43 -33 3 -6 2 -7 -4
-4 -5 3 -25 -3 -44 -15 -34 -21 -67 -40 -136 -79 -21 -12 -43 -25 -50 -30 -7
-7 -13 -5 -16 3 -4 8 -6 7 -6 -4 -1 -10 -8 -18 -16 -18 -8 0 -15 -4 -15 -8 0
-5 -19 -17 -42 -28 -24 -10 -46 -23 -50 -29 -5 -6 -8 -6 -8 0 0 6 -5 3 -10 -5
-5 -8 -13 -15 -17 -15 -7 -1 -51 -26 -108 -63 -11 -6 -39 -22 -62 -34 -24 -12
-43 -26 -43 -30 0 -4 -7 -8 -15 -8 -8 0 -15 5 -15 11 0 5 5 7 10 4 6 -3 10 -2
10 4 0 6 11 13 25 17 14 3 22 10 19 16 -3 5 2 8 12 6 12 -2 18 2 16 10 -1 8 2
11 7 8 5 -4 16 1 25 9 8 9 18 16 21 15 21 -1 25 2 19 13 -4 6 -4 9 1 5 4 -4
14 -3 22 3 7 6 13 8 13 4 0 -5 8 2 19 13 10 12 20 19 23 17 3 -3 11 1 18 10 7
8 21 15 32 15 10 0 16 4 13 10 -3 6 1 7 9 4 9 -4 18 1 22 10 3 9 10 13 15 10
5 -3 12 2 15 10 3 9 10 14 14 11 4 -3 10 2 14 10 3 8 12 12 21 9 8 -3 15 -2
15 3 0 5 16 15 35 23 19 8 35 17 35 20 0 3 16 12 35 20 19 7 32 17 29 22 -3 5
-2 7 3 6 11 -4 113 53 113 63 0 5 6 6 13 3 7 -2 24 6 38 18 25 24 59 34 59 17z
m-1142 -473 c12 -4 22 -11 22 -16 0 -4 10 -10 23 -14 25 -6 77 -46 60 -46 -14
0 -101 49 -108 61 -4 5 -15 9 -26 9 -19 0 -25 11 -12 23 4 4 9 3 12 -2 3 -4
16 -11 29 -15z m342 12 c0 -8 -16 -12 -32 -9 -5 0 -8 -3 -8 -7 0 -10 -50 -37
-62 -34 -5 1 -8 -2 -8 -6 0 -11 -51 -35 -58 -27 -3 3 0 5 7 5 7 0 9 4 6 10 -3
6 1 7 9 4 9 -3 16 -2 16 4 0 6 13 15 30 20 16 6 36 19 45 29 16 18 55 26 55
11z m-194 -178 c-1 -16 3 -30 8 -31 7 0 7 -2 1 -5 -7 -3 -10 -187 -9 -529 1
-289 -1 -525 -5 -525 -6 0 -8 1108 -2 1118 5 9 9 -3 7 -28z"/>
</g>
</svg>
